<?xml version="1.0" standalone="no"?>
<!DOCTYPE svg PUBLIC "-//W3C//DTD SVG 20010904//EN"
 "http://www.w3.org/TR/2001/REC-SVG-20010904/DTD/svg10.dtd">
<svg version="1.0" xmlns="http://www.w3.org/2000/svg"
 width="500.000000pt" height="500.000000pt" viewBox="0 0 500.000000 500.000000"
 preserveAspectRatio="xMidYMid meet">
<metadata>
Created by potrace 1.14, written by Peter Selinger 2001-2017
</metadata>
<g transform="translate(0.000000,500.000000) scale(0.100000,-0.100000)"
fill="#000000" stroke="none">
<path d="M0 2500 l0 -2500 2500 0 2500 0 0 2500 0 2500 -2500 0 -2500 0 0
-2500z m2815 1908 c-41 -88 -95 -221 -95 -232 0 -2 78 -6 173 -9 129 -4 200
-12 283 -30 625 -139 1116 -555 1347 -1143 42 -106 90 -284 109 -399 17 -107
17 -448 -1 -545 -94 -536 -370 -969 -797 -1256 -248 -166 -519 -268 -810 -305
-142 -17 -463 -7 -584 20 -469 104 -845 341 -1116 703 -104 140 -148 217 -256
455 -80 176 -96 204 -157 272 -67 75 -164 211 -156 219 2 2 41 -18 87 -46 311
-187 600 -275 908 -276 130 -1 314 21 289 34 -8 4 -47 10 -87 14 -169 15 -412
81 -547 148 -152 76 -311 218 -384 341 -128 216 -167 508 -116 851 16 104 55
285 82 373 l17 58 13 -125 c68 -635 323 -1064 757 -1275 111 -54 288 -119 308
-113 5 2 -17 25 -50 50 -93 73 -231 214 -310 316 -133 173 -222 360 -263 552
-30 144 -31 371 -1 516 49 240 180 545 338 787 42 65 77 117 78 115 1 -2 0
-88 -3 -193 -3 -104 -3 -282 1 -395 24 -740 223 -1236 600 -1491 175 -119 522
-213 621 -168 36 16 57 60 57 121 l1 53 39 -44 c47 -51 46 -58 20 139 -10 80
-17 146 -16 148 2 1 21 -19 42 -45 21 -26 83 -97 138 -158 171 -191 214 -258
241 -380 16 -72 28 -218 17 -213 -4 2 -45 22 -92 45 -350 175 -826 -43 -925
-424 -21 -81 -19 -221 5 -321 32 -133 116 -296 218 -421 l36 -44 80 7 c141 11
139 5 33 115 -193 202 -276 376 -265 557 9 139 64 244 197 379 41 41 76 73 78
72 2 -2 -12 -37 -31 -78 -52 -112 -69 -189 -70 -309 -1 -123 21 -207 81 -310
50 -85 177 -211 284 -283 l87 -58 51 20 c596 235 1006 807 1037 1447 31 621
-310 1225 -856 1517 -252 135 -500 196 -792 197 l-136 0 -16 -68 c-65 -286
-70 -558 -16 -821 44 -211 154 -471 276 -653 30 -46 46 -78 39 -78 -8 0 -51
14 -97 31 -216 79 -396 229 -501 419 -112 201 -154 387 -144 640 10 264 87
502 233 721 56 85 186 219 259 269 59 41 168 100 173 95 2 -2 -17 -50 -43
-107z"/>
<path d="M1310 1642 c0 -4 18 -40 41 -81 135 -248 303 -436 528 -589 80 -56
210 -127 216 -120 1 2 7 89 14 193 10 165 29 329 47 402 7 25 10 24 -211 43
-207 18 -395 63 -582 138 -29 12 -53 18 -53 14z"/>
</g>
</svg>
